<?xml version="1.0" encoding="UTF-8" standalone="no"?>
<!DOCTYPE svg PUBLIC "-//W3C//DTD SVG 1.1//EN"
 "http://www.w3.org/Graphics/SVG/1.1/DTD/svg11.dtd">
<!-- Generated by graphviz version 2.43.0 (0)
 -->
<!-- Title: ReconcileArchitecture Pages: 1 -->
<svg width="1930pt" height="1080pt"
 viewBox="0.00 0.00 965.24 540.00" xmlns="http://www.w3.org/2000/svg" xmlns:xlink="http://www.w3.org/1999/xlink">
<g id="graph0" class="graph" transform="scale(1.64 1.64) rotate(0) translate(21.6 636.98)">
<title>ReconcileArchitecture</title>
<polygon fill="#07111f" stroke="transparent" points="-21.6,21.6 -21.6,-636.98 1155.6,-636.98 1155.6,21.6 -21.6,21.6"/>
<text text-anchor="middle" x="445" y="-592.18" font-family="Arial" font-size="24.00" fill="#f8fafc">RECONCILE — advisory investigation, deterministic authority, bounded execution</text>
<g id="clust1" class="cluster">
<title>cluster_authority_flow</title>
<path fill="#07111f" stroke="#475569" d="M63,-304.02C63,-304.02 1015,-304.02 1015,-304.02 1021,-304.02 1027,-310.02 1027,-316.02 1027,-316.02 1027,-560.98 1027,-560.98 1027,-566.98 1021,-572.98 1015,-572.98 1015,-572.98 63,-572.98 63,-572.98 57,-572.98 51,-566.98 51,-560.98 51,-560.98 51,-316.02 51,-316.02 51,-310.02 57,-304.02 63,-304.02"/>
<text text-anchor="middle" x="184" y="-557.78" font-family="Arial" font-size="14.00" fill="#cbd5e1">PROOF&#45;TO&#45;PERMIT AUTHORITY PATH</text>
</g>
<g id="clust4" class="cluster">
<title>cluster_topology</title>
<path fill="#07111f" stroke="#334155" d="M20,-8.4C20,-8.4 1114,-8.4 1114,-8.4 1120,-8.4 1126,-14.4 1126,-20.4 1126,-20.4 1126,-274.16 1126,-274.16 1126,-280.16 1120,-286.16 1114,-286.16 1114,-286.16 20,-286.16 20,-286.16 14,-286.16 8,-280.16 8,-274.16 8,-274.16 8,-20.4 8,-20.4 8,-14.4 14,-8.4 20,-8.4"/>
<text text-anchor="middle" x="345.5" y="-270.96" font-family="Arial" font-size="14.00" fill="#cbd5e1">DEPLOYED TOPOLOGY — FIVE CLOUD RUN SERVICES • ONE IAM&#45;SCOPED IDENTITY PER SERVICE</text>
</g>
<!-- fault -->
<g id="node1" class="node">
<title>fault</title>
<path fill="#451a1a" stroke="#fb7185" stroke-width="1.4" d="M378.71,-488.73C378.71,-488.73 378.71,-498.08 378.71,-498.08 378.71,-502.75 374.14,-508.43 369.58,-509.43 369.58,-509.43 297.21,-525.26 297.21,-525.26 292.65,-526.26 283.41,-527.26 278.73,-527.26 278.73,-527.26 169.27,-527.26 169.27,-527.26 164.59,-527.26 155.35,-526.26 150.79,-525.26 150.79,-525.26 78.42,-509.43 78.42,-509.43 73.86,-508.43 69.29,-502.75 69.29,-498.08 69.29,-498.08 69.29,-488.73 69.29,-488.73 69.29,-484.06 73.86,-478.38 78.42,-477.38 78.42,-477.38 150.79,-461.55 150.79,-461.55 155.35,-460.55 164.59,-459.55 169.27,-459.55 169.27,-459.55 278.73,-459.55 278.73,-459.55 283.41,-459.55 292.65,-460.55 297.21,-461.55 297.21,-461.55 369.58,-477.38 369.58,-477.38 374.14,-478.38 378.71,-484.06 378.71,-488.73"/>
<text text-anchor="middle" x="224" y="-496.8" font-family="Arial" font-size="12.00" fill="#e2e8f0">1 &#160;LOST ACKNOWLEDGEMENT</text>
<text text-anchor="middle" x="224" y="-483.8" font-family="Arial" font-size="12.00" fill="#e2e8f0">provider outcome is ambiguous</text>
</g>
<!-- advisory -->
<g id="node2" class="node">
<title>advisory</title>
<path fill="#2e1065" stroke="#c4b5fd" stroke-width="1.4" d="M683.5,-528.4C683.5,-528.4 514.5,-528.4 514.5,-528.4 508.5,-528.4 502.5,-522.4 502.5,-516.4 502.5,-516.4 502.5,-470.4 502.5,-470.4 502.5,-464.4 508.5,-458.4 514.5,-458.4 514.5,-458.4 683.5,-458.4 683.5,-458.4 689.5,-458.4 695.5,-464.4 695.5,-470.4 695.5,-470.4 695.5,-516.4 695.5,-516.4 695.5,-522.4 689.5,-528.4 683.5,-528.4"/>
<text text-anchor="middle" x="599" y="-509.8" font-family="Arial" font-size="12.00" fill="#e2e8f0">2 &#160;ADVISORY ONLY</text>
<text text-anchor="middle" x="599" y="-496.8" font-family="Arial" font-size="12.00" fill="#e2e8f0">RecoveryAgent + ADK / Gemini</text>
<text text-anchor="middle" x="599" y="-483.8" font-family="Arial" font-size="12.00" fill="#e2e8f0">hypothesis and proposed reads</text>
<text text-anchor="middle" x="599" y="-470.8" font-family="Arial" font-size="12.00" fill="#e2e8f0">never mutation authority</text>
</g>
<!-- fault&#45;&gt;advisory -->
<g id="edge1" class="edge">
<title>fault&#45;&gt;advisory</title>
<path fill="none" stroke="#fbbf24" stroke-width="1.4" d="M378.69,-493.4C417.78,-493.4 458.82,-493.4 494.75,-493.4"/>
<polygon fill="#fbbf24" stroke="#fbbf24" stroke-width="1.4" points="494.84,-496.03 502.34,-493.4 494.84,-490.78 494.84,-496.03"/>
<text text-anchor="middle" x="440.55" y="-499.4" font-family="Arial" font-size="10.00" fill="#cbd5e1">reconcile; do not guess</text>
</g>
<!-- evidence -->
<g id="node3" class="node">
<title>evidence</title>
<path fill="#082f49" stroke="#38bdf8" stroke-width="1.4" d="M997,-521.9C997,-521.9 833,-521.9 833,-521.9 827,-521.9 821,-515.9 821,-509.9 821,-509.9 821,-476.9 821,-476.9 821,-470.9 827,-464.9 833,-464.9 833,-464.9 997,-464.9 997,-464.9 1003,-464.9 1009,-470.9 1009,-476.9 1009,-476.9 1009,-509.9 1009,-509.9 1009,-515.9 1003,-521.9 997,-521.9"/>
<text text-anchor="middle" x="915" y="-503.3" font-family="Arial" font-size="12.00" fill="#e2e8f0">3 &#160;READ&#45;ONLY EVIDENCE</text>
<text text-anchor="middle" x="915" y="-490.3" font-family="Arial" font-size="12.00" fill="#e2e8f0">allowlist + budget + freshness</text>
<text text-anchor="middle" x="915" y="-477.3" font-family="Arial" font-size="12.00" fill="#e2e8f0">provenance + exact correlation</text>
</g>
<!-- advisory&#45;&gt;evidence -->
<g id="edge2" class="edge">
<title>advisory&#45;&gt;evidence</title>
<path fill="none" stroke="#a78bfa" stroke-width="1.4" d="M695.53,-493.4C732.72,-493.4 775.3,-493.4 813,-493.4"/>
<polygon fill="#a78bfa" stroke="#a78bfa" stroke-width="1.4" points="813.46,-496.03 820.96,-493.4 813.46,-490.78 813.46,-496.03"/>
<text text-anchor="middle" x="758.25" y="-499.4" font-family="Arial" font-size="10.00" fill="#cbd5e1">bounded probe proposal</text>
</g>
<!-- authority -->
<g id="node4" class="node">
<title>authority</title>
<path fill="#052e2b" stroke="#34d399" stroke-width="1.4" d="M314.5,-394.4C314.5,-394.4 133.5,-394.4 133.5,-394.4 127.5,-394.4 121.5,-388.4 121.5,-382.4 121.5,-382.4 121.5,-336.4 121.5,-336.4 121.5,-330.4 127.5,-324.4 133.5,-324.4 133.5,-324.4 314.5,-324.4 314.5,-324.4 320.5,-324.4 326.5,-330.4 326.5,-336.4 326.5,-336.4 326.5,-382.4 326.5,-382.4 326.5,-388.4 320.5,-394.4 314.5,-394.4"/>
<text text-anchor="middle" x="224" y="-375.8" font-family="Arial" font-size="12.00" fill="#e2e8f0">4 &#160;DETERMINISTIC AUTHORITY</text>
<text text-anchor="middle" x="224" y="-362.8" font-family="Arial" font-size="12.00" fill="#e2e8f0">rules consume admitted facts</text>
<text text-anchor="middle" x="224" y="-349.8" font-family="Arial" font-size="12.00" fill="#e2e8f0">UNKNOWN → HOLD</text>
<text text-anchor="middle" x="224" y="-336.8" font-family="Arial" font-size="12.00" fill="#e2e8f0">proved effect → certificate</text>
</g>
<!-- evidence&#45;&gt;authority -->
<g id="edge3" class="edge">
<title>evidence&#45;&gt;authority</title>
<path fill="none" stroke="#38bdf8" stroke-width="1.4" d="M820.73,-474.4C693.87,-450.16 468.63,-407.14 334.12,-381.44"/>
<polygon fill="#38bdf8" stroke="#38bdf8" stroke-width="1.4" points="334.45,-378.83 326.59,-380 333.47,-383.99 334.45,-378.83"/>
<text text-anchor="middle" x="621.5" y="-423.9" font-family="Arial" font-size="10.00" fill="#cbd5e1">admitted facts</text>
</g>
<!-- permit -->
<g id="node5" class="node">
<title>permit</title>
<path fill="#052e2b" stroke="#34d399" stroke-width="1.4" d="M658.5,-387.9C658.5,-387.9 459.5,-387.9 459.5,-387.9 453.5,-387.9 447.5,-381.9 447.5,-375.9 447.5,-375.9 447.5,-342.9 447.5,-342.9 447.5,-336.9 453.5,-330.9 459.5,-330.9 459.5,-330.9 658.5,-330.9 658.5,-330.9 664.5,-330.9 670.5,-336.9 670.5,-342.9 670.5,-342.9 670.5,-375.9 670.5,-375.9 670.5,-381.9 664.5,-387.9 658.5,-387.9"/>
<text text-anchor="middle" x="559" y="-369.3" font-family="Arial" font-size="12.00" fill="#e2e8f0">5 &#160;EXACT PERMIT</text>
<text text-anchor="middle" x="559" y="-356.3" font-family="Arial" font-size="12.00" fill="#e2e8f0">semantic action + expiry</text>
<text text-anchor="middle" x="559" y="-343.3" font-family="Arial" font-size="12.00" fill="#e2e8f0">max_uses=1 • durable Firestore CAS</text>
</g>
<!-- authority&#45;&gt;permit -->
<g id="edge4" class="edge">
<title>authority&#45;&gt;permit</title>
<path fill="none" stroke="#34d399" stroke-width="1.4" d="M326.79,-359.4C362.43,-359.4 402.69,-359.4 439.56,-359.4"/>
<polygon fill="#34d399" stroke="#34d399" stroke-width="1.4" points="439.87,-362.03 447.37,-359.4 439.87,-356.78 439.87,-362.03"/>
<text text-anchor="middle" x="387" y="-365.4" font-family="Arial" font-size="10.00" fill="#cbd5e1">verified certificate only</text>
</g>
<!-- dispatch -->
<g id="node6" class="node">
<title>dispatch</title>
<path fill="#172554" stroke="#818cf8" stroke-width="1.4" d="M996.5,-387.9C996.5,-387.9 793.5,-387.9 793.5,-387.9 787.5,-387.9 781.5,-381.9 781.5,-375.9 781.5,-375.9 781.5,-342.9 781.5,-342.9 781.5,-336.9 787.5,-330.9 793.5,-330.9 793.5,-330.9 996.5,-330.9 996.5,-330.9 1002.5,-330.9 1008.5,-336.9 1008.5,-342.9 1008.5,-342.9 1008.5,-375.9 1008.5,-375.9 1008.5,-381.9 1002.5,-387.9 996.5,-387.9"/>
<text text-anchor="middle" x="895" y="-369.3" font-family="Arial" font-size="12.00" fill="#e2e8f0">6 &#160;GUARDED PROVIDER CONTACT</text>
<text text-anchor="middle" x="895" y="-356.3" font-family="Arial" font-size="12.00" fill="#e2e8f0">claim permit before dispatch</text>
<text text-anchor="middle" x="895" y="-343.3" font-family="Arial" font-size="12.00" fill="#e2e8f0">consumed replay rejected pre&#45;contact</text>
</g>
<!-- permit&#45;&gt;dispatch -->
<g id="edge5" class="edge">
<title>permit&#45;&gt;dispatch</title>
<path fill="none" stroke="#34d399" stroke-width="1.4" d="M670.88,-359.4C703.89,-359.4 740.17,-359.4 773.74,-359.4"/>
<polygon fill="#34d399" stroke="#34d399" stroke-width="1.4" points="773.81,-362.03 781.31,-359.4 773.81,-356.78 773.81,-362.03"/>
<text text-anchor="middle" x="726" y="-365.4" font-family="Arial" font-size="10.00" fill="#cbd5e1">claim before contact</text>
</g>
<!-- proxy -->
<g id="node9" class="node">
<title>proxy</title>
<path fill="#172554" stroke="#818cf8" stroke-width="1.4" d="M617,-234.9C617,-234.9 501,-234.9 501,-234.9 495,-234.9 489,-228.9 489,-222.9 489,-222.9 489,-189.9 489,-189.9 489,-183.9 495,-177.9 501,-177.9 501,-177.9 617,-177.9 617,-177.9 623,-177.9 629,-183.9 629,-189.9 629,-189.9 629,-222.9 629,-222.9 629,-228.9 623,-234.9 617,-234.9"/>
<text text-anchor="middle" x="559" y="-216.3" font-family="Arial" font-size="12.00" fill="#e2e8f0">FAULT PROXY</text>
<text text-anchor="middle" x="559" y="-203.3" font-family="Arial" font-size="12.00" fill="#e2e8f0">permit&#45;gated mutation</text>
<text text-anchor="middle" x="559" y="-190.3" font-family="Arial" font-size="12.00" fill="#e2e8f0">invokes sandbox</text>
</g>
<!-- permit&#45;&gt;proxy -->
<!-- api -->
<g id="node7" class="node">
<title>api</title>
<path fill="#13253d" stroke="#60a5fa" stroke-width="1.4" d="M171.5,-234.9C171.5,-234.9 38.5,-234.9 38.5,-234.9 32.5,-234.9 26.5,-228.9 26.5,-222.9 26.5,-222.9 26.5,-189.9 26.5,-189.9 26.5,-183.9 32.5,-177.9 38.5,-177.9 38.5,-177.9 171.5,-177.9 171.5,-177.9 177.5,-177.9 183.5,-183.9 183.5,-189.9 183.5,-189.9 183.5,-222.9 183.5,-222.9 183.5,-228.9 177.5,-234.9 171.5,-234.9"/>
<text text-anchor="middle" x="105" y="-216.3" font-family="Arial" font-size="12.00" fill="#e2e8f0">API</text>
<text text-anchor="middle" x="105" y="-203.3" font-family="Arial" font-size="12.00" fill="#e2e8f0">operator entry</text>
<text text-anchor="middle" x="105" y="-190.3" font-family="Arial" font-size="12.00" fill="#e2e8f0">invokes controller / proxy</text>
</g>
<!-- controller -->
<g id="node8" class="node">
<title>controller</title>
<path fill="#13253d" stroke="#60a5fa" stroke-width="1.4" d="M400,-241.4C400,-241.4 272,-241.4 272,-241.4 266,-241.4 260,-235.4 260,-229.4 260,-229.4 260,-183.4 260,-183.4 260,-177.4 266,-171.4 272,-171.4 272,-171.4 400,-171.4 400,-171.4 406,-171.4 412,-177.4 412,-183.4 412,-183.4 412,-229.4 412,-229.4 412,-235.4 406,-241.4 400,-241.4"/>
<text text-anchor="middle" x="336" y="-222.8" font-family="Arial" font-size="12.00" fill="#e2e8f0">CONTROLLER</text>
<text text-anchor="middle" x="336" y="-209.8" font-family="Arial" font-size="12.00" fill="#e2e8f0">Gemini + provider reads</text>
<text text-anchor="middle" x="336" y="-196.8" font-family="Arial" font-size="12.00" fill="#e2e8f0">deterministic verifier</text>
<text text-anchor="middle" x="336" y="-183.8" font-family="Arial" font-size="12.00" fill="#e2e8f0">invokes sandbox</text>
</g>
<!-- api&#45;&gt;controller -->
<g id="edge6" class="edge">
<title>api&#45;&gt;controller</title>
<path fill="none" stroke="#64748b" stroke-width="1.4" d="M183.53,-206.4C205.62,-206.4 229.73,-206.4 252.12,-206.4"/>
<polygon fill="#64748b" stroke="#64748b" stroke-width="1.4" points="252.14,-209.03 259.64,-206.4 252.14,-203.78 252.14,-209.03"/>
<text text-anchor="middle" x="221.75" y="-212.4" font-family="Arial" font-size="10.00" fill="#cbd5e1">investigation</text>
</g>
<!-- controller&#45;&gt;proxy -->
<g id="edge7" class="edge">
<title>controller&#45;&gt;proxy</title>
<path fill="none" stroke="#34d399" stroke-width="1.4" d="M412.12,-206.4C434.45,-206.4 458.9,-206.4 481.32,-206.4"/>
<polygon fill="#34d399" stroke="#34d399" stroke-width="1.4" points="481.35,-209.03 488.85,-206.4 481.35,-203.78 481.35,-209.03"/>
<text text-anchor="middle" x="450.5" y="-212.4" font-family="Arial" font-size="10.00" fill="#cbd5e1">exact permit</text>
</g>
<!-- vertex -->
<g id="node12" class="node">
<title>vertex</title>
<polygon fill="#2e1065" stroke="#c4b5fd" stroke-width="1.4" points="336.5,-90.4 221.5,-90.4 221.5,-86.4 217.5,-86.4 217.5,-82.4 221.5,-82.4 221.5,-54.4 217.5,-54.4 217.5,-50.4 221.5,-50.4 221.5,-46.4 336.5,-46.4 336.5,-90.4"/>
<polyline fill="none" stroke="#c4b5fd" stroke-width="1.4" points="221.5,-86.4 225.5,-86.4 225.5,-82.4 221.5,-82.4 "/>
<polyline fill="none" stroke="#c4b5fd" stroke-width="1.4" points="221.5,-54.4 225.5,-54.4 225.5,-50.4 221.5,-50.4 "/>
<text text-anchor="middle" x="279" y="-71.8" font-family="Arial" font-size="12.00" fill="#e2e8f0">Vertex AI</text>
<text text-anchor="middle" x="279" y="-58.8" font-family="Arial" font-size="12.00" fill="#e2e8f0">controller identity</text>
</g>
<!-- controller&#45;&gt;vertex -->
<g id="edge10" class="edge">
<title>controller&#45;&gt;vertex</title>
<path fill="none" stroke="#a78bfa" stroke-width="1.4" d="M306.09,-171.27C294.07,-157.54 283,-144.9 283,-144.9 283,-144.9 281.65,-119.42 280.52,-98.06"/>
<polygon fill="#a78bfa" stroke="#a78bfa" stroke-width="1.4" points="283.13,-97.79 280.11,-90.44 277.89,-98.06 283.13,-97.79"/>
<text text-anchor="middle" x="310.5" y="-136.9" font-family="Arial" font-size="10.00" fill="#cbd5e1">advisory call</text>
</g>
<!-- runtime_db -->
<g id="node13" class="node">
<title>runtime_db</title>
<path fill="#082f49" stroke="#38bdf8" stroke-width="1.4" d="M553.5,-100.62C553.5,-104.57 514.73,-107.78 467,-107.78 419.27,-107.78 380.5,-104.57 380.5,-100.62 380.5,-100.62 380.5,-36.19 380.5,-36.19 380.5,-32.24 419.27,-29.03 467,-29.03 514.73,-29.03 553.5,-32.24 553.5,-36.19 553.5,-36.19 553.5,-100.62 553.5,-100.62"/>
<path fill="none" stroke="#38bdf8" stroke-width="1.4" d="M553.5,-100.62C553.5,-96.67 514.73,-93.46 467,-93.46 419.27,-93.46 380.5,-96.67 380.5,-100.62"/>
<text text-anchor="middle" x="467" y="-78.3" font-family="Arial" font-size="12.00" fill="#e2e8f0">runtime Firestore</text>
<text text-anchor="middle" x="467" y="-65.3" font-family="Arial" font-size="12.00" fill="#e2e8f0">API + controller + proxy</text>
<text text-anchor="middle" x="467" y="-52.3" font-family="Arial" font-size="12.00" fill="#e2e8f0">authority state + permit CAS</text>
</g>
<!-- controller&#45;&gt;runtime_db -->
<g id="edge11" class="edge">
<title>controller&#45;&gt;runtime_db</title>
<path fill="none" stroke="#38bdf8" stroke-width="1.4" d="M356.97,-171.33C368.3,-152.91 380,-133.9 380,-133.9 380,-133.9 393.33,-124.02 409.55,-112"/>
<polygon fill="#38bdf8" stroke="#38bdf8" stroke-width="1.4" points="411.18,-114.06 415.64,-107.48 408.05,-109.84 411.18,-114.06"/>
<text text-anchor="middle" x="404.5" y="-136.9" font-family="Arial" font-size="10.00" fill="#cbd5e1">read / CAS</text>
</g>
<!-- target_db -->
<g id="node14" class="node">
<title>target_db</title>
<path fill="#082f49" stroke="#38bdf8" stroke-width="1.4" d="M789,-93.36C789,-96.42 745.97,-98.91 693,-98.91 640.03,-98.91 597,-96.42 597,-93.36 597,-93.36 597,-43.45 597,-43.45 597,-40.39 640.03,-37.9 693,-37.9 745.97,-37.9 789,-40.39 789,-43.45 789,-43.45 789,-93.36 789,-93.36"/>
<path fill="none" stroke="#38bdf8" stroke-width="1.4" d="M789,-93.36C789,-90.3 745.97,-87.82 693,-87.82 640.03,-87.82 597,-90.3 597,-93.36"/>
<text text-anchor="middle" x="693" y="-71.8" font-family="Arial" font-size="12.00" fill="#e2e8f0">target Firestore</text>
<text text-anchor="middle" x="693" y="-58.8" font-family="Arial" font-size="12.00" fill="#e2e8f0">controller reads • proxy mutates</text>
</g>
<!-- controller&#45;&gt;target_db -->
<g id="edge13" class="edge">
<title>controller&#45;&gt;target_db</title>
<path fill="none" stroke="#38bdf8" stroke-width="1.4" stroke-dasharray="5,2" d="M398.91,-171.33C432.91,-152.91 468,-133.9 468,-133.9 468,-133.9 565,-107.59 565,-107.59 565,-107.59 577.11,-103.98 593.89,-98.97"/>
<polygon fill="#38bdf8" stroke="#38bdf8" stroke-width="1.4" points="594.9,-101.41 601.34,-96.75 593.4,-96.38 594.9,-101.41"/>
<text text-anchor="middle" x="488" y="-136.9" font-family="Arial" font-size="10.00" fill="#cbd5e1">read only</text>
</g>
<!-- canary -->
<g id="node10" class="node">
<title>canary</title>
<path fill="#13253d" stroke="#60a5fa" stroke-width="1.4" d="M888.5,-234.9C888.5,-234.9 771.5,-234.9 771.5,-234.9 765.5,-234.9 759.5,-228.9 759.5,-222.9 759.5,-222.9 759.5,-189.9 759.5,-189.9 759.5,-183.9 765.5,-177.9 771.5,-177.9 771.5,-177.9 888.5,-177.9 888.5,-177.9 894.5,-177.9 900.5,-183.9 900.5,-189.9 900.5,-189.9 900.5,-222.9 900.5,-222.9 900.5,-228.9 894.5,-234.9 888.5,-234.9"/>
<text text-anchor="middle" x="830" y="-216.3" font-family="Arial" font-size="12.00" fill="#e2e8f0">CANARY</text>
<text text-anchor="middle" x="830" y="-203.3" font-family="Arial" font-size="12.00" fill="#e2e8f0">read by controller</text>
<text text-anchor="middle" x="830" y="-190.3" font-family="Arial" font-size="12.00" fill="#e2e8f0">mutated by fault proxy</text>
</g>
<!-- proxy&#45;&gt;canary -->
<g id="edge8" class="edge">
<title>proxy&#45;&gt;canary</title>
<path fill="none" stroke="#34d399" stroke-width="1.4" d="M629.14,-206.4C666.63,-206.4 712.9,-206.4 751.58,-206.4"/>
<polygon fill="#34d399" stroke="#34d399" stroke-width="1.4" points="751.71,-209.03 759.21,-206.4 751.71,-203.78 751.71,-209.03"/>
<text text-anchor="middle" x="694.25" y="-212.4" font-family="Arial" font-size="10.00" fill="#cbd5e1">bounded stage / promote</text>
</g>
<!-- proxy&#45;&gt;runtime_db -->
<g id="edge12" class="edge">
<title>proxy&#45;&gt;runtime_db</title>
<path fill="none" stroke="#38bdf8" stroke-width="1.4" d="M540.38,-177.88C528.01,-159.59 511.48,-135.16 497.25,-114.12"/>
<polygon fill="#38bdf8" stroke="#38bdf8" stroke-width="1.4" points="499.29,-112.45 492.91,-107.71 494.94,-115.39 499.29,-112.45"/>
<text text-anchor="middle" x="566" y="-136.9" font-family="Arial" font-size="10.00" fill="#cbd5e1">dispatch receipt / claim</text>
</g>
<!-- proxy&#45;&gt;target_db -->
<g id="edge14" class="edge">
<title>proxy&#45;&gt;target_db</title>
<path fill="none" stroke="#34d399" stroke-width="1.4" d="M587.92,-177.63C604.48,-161.73 622,-144.9 622,-144.9 622,-144.9 641.56,-124.11 660.15,-104.34"/>
<polygon fill="#34d399" stroke="#34d399" stroke-width="1.4" points="662.12,-106.07 665.35,-98.81 658.3,-102.48 662.12,-106.07"/>
<text text-anchor="middle" x="683.5" y="-136.9" font-family="Arial" font-size="10.00" fill="#cbd5e1">release&#45;record mutation</text>
</g>
<!-- sandbox -->
<g id="node11" class="node">
<title>sandbox</title>
<path fill="#13253d" stroke="#60a5fa" stroke-width="1.4" d="M1095.5,-234.9C1095.5,-234.9 956.5,-234.9 956.5,-234.9 950.5,-234.9 944.5,-228.9 944.5,-222.9 944.5,-222.9 944.5,-189.9 944.5,-189.9 944.5,-183.9 950.5,-177.9 956.5,-177.9 956.5,-177.9 1095.5,-177.9 1095.5,-177.9 1101.5,-177.9 1107.5,-183.9 1107.5,-189.9 1107.5,-189.9 1107.5,-222.9 1107.5,-222.9 1107.5,-228.9 1101.5,-234.9 1095.5,-234.9"/>
<text text-anchor="middle" x="1026" y="-216.3" font-family="Arial" font-size="12.00" fill="#e2e8f0">SANDBOX</text>
<text text-anchor="middle" x="1026" y="-203.3" font-family="Arial" font-size="12.00" fill="#e2e8f0">isolated scenario service</text>
<text text-anchor="middle" x="1026" y="-190.3" font-family="Arial" font-size="12.00" fill="#e2e8f0">called by controller / proxy</text>
</g>
<!-- canary&#45;&gt;sandbox -->
<!-- sandbox_db -->
<g id="node15" class="node">
<title>sandbox_db</title>
<path fill="#082f49" stroke="#38bdf8" stroke-width="1.4" d="M969.5,-93.36C969.5,-96.42 938.8,-98.91 901,-98.91 863.2,-98.91 832.5,-96.42 832.5,-93.36 832.5,-93.36 832.5,-43.45 832.5,-43.45 832.5,-40.39 863.2,-37.9 901,-37.9 938.8,-37.9 969.5,-40.39 969.5,-43.45 969.5,-43.45 969.5,-93.36 969.5,-93.36"/>
<path fill="none" stroke="#38bdf8" stroke-width="1.4" d="M969.5,-93.36C969.5,-90.3 938.8,-87.82 901,-87.82 863.2,-87.82 832.5,-90.3 832.5,-93.36"/>
<text text-anchor="middle" x="901" y="-71.8" font-family="Arial" font-size="12.00" fill="#e2e8f0">sandbox Firestore</text>
<text text-anchor="middle" x="901" y="-58.8" font-family="Arial" font-size="12.00" fill="#e2e8f0">sandbox identity only</text>
</g>
<!-- sandbox&#45;&gt;sandbox_db -->
<g id="edge15" class="edge">
<title>sandbox&#45;&gt;sandbox_db</title>
<path fill="none" stroke="#38bdf8" stroke-width="1.4" d="M1000.7,-177.88C981.24,-156.7 954.2,-127.29 933.19,-104.43"/>
<polygon fill="#38bdf8" stroke="#38bdf8" stroke-width="1.4" points="935,-102.51 927.99,-98.77 931.13,-106.07 935,-102.51"/>
<text text-anchor="middle" x="996.5" y="-136.9" font-family="Arial" font-size="10.00" fill="#cbd5e1">isolated state</text>
</g>
<!-- vertex&#45;&gt;runtime_db -->
<!-- runtime_db&#45;&gt;target_db -->
<!-- target_db&#45;&gt;sandbox_db -->
</g>
</svg>
